<svg width="8" height="8" viewBox="0 0 8 8" fill="none" xmlns="http://www.w3.org/2000/svg">
<path d="M4 7.5C3.25832 7.5 2.5333 7.28007 1.91661 6.86801C1.29993 6.45596 0.819282 5.87029 0.535453 5.18506C0.251625 4.49984 0.177362 3.74584 0.322057 3.01841C0.466751 2.29098 0.823905 1.6228 1.34835 1.09835C1.8728 0.573905 2.54098 0.216751 3.26841 0.0720569C3.99584 -0.0726377 4.74984 0.00162482 5.43507 0.285453C6.12029 0.569282 6.70596 1.04993 7.11801 1.66661C7.53007 2.2833 7.75 3.00832 7.75 3.75C7.74881 4.7442 7.35334 5.69733 6.65034 6.40034C5.94733 7.10334 4.9942 7.49881 4 7.5ZM4 1.5C3.55499 1.5 3.11998 1.63196 2.74997 1.8792C2.37996 2.12643 2.09157 2.47783 1.92127 2.88896C1.75098 3.3001 1.70642 3.7525 1.79323 4.18896C1.88005 4.62541 2.09434 5.02632 2.40901 5.34099C2.72368 5.65566 3.12459 5.86995 3.56105 5.95677C3.99751 6.04359 4.44991 5.99903 4.86104 5.82873C5.27217 5.65843 5.62358 5.37005 5.87081 5.00004C6.11804 4.63002 6.25 4.19501 6.25 3.75C6.24941 3.15345 6.01216 2.5815 5.59033 2.15967C5.16851 1.73784 4.59656 1.5006 4 1.5Z" fill="#252525"/>
</svg>
